# xmcd CD database file
#
# Track frame offsets:
#	150
#	103830
#	223785
#
# Disc length: 4440 seconds
#
# Revision: 2
# Processed by: cddbd v1.5.2PL0 Copyright (c) Steve Scherf et al.
# Submitted via: CDex 1.70beta2
#
DISCID=28115603
DTITLE=東京ディズニーランド - Unknown CD for MusicBrainz and FreeDB
DYEAR=1900
DGENRE=Musicals/Broadway
TTITLE0=Untitled
TTITLE1=Untitled
TTITLE2=Untitled
EXTD=
EXTT0=
EXTT1=
EXTT2=
PLAYORDER=
